<?xml version="1.0" encoding="UTF-8"?>
<svg id="Layer_1" xmlns="http://www.w3.org/2000/svg" version="1.1" viewBox="0 0 270.2 52.8">
  <!-- Generator: Adobe Illustrator 29.1.0, SVG Export Plug-In . SVG Version: 2.1.0 Build 142)  -->
  <defs>
    <style>
      .st0 {
        fill: none;
      }

      .st1 {
        isolation: isolate;
      }

      .st2 {
        fill: #c6c6c6;
      }

      .st3 {
        fill: #fff;
      }

      .st4 {
        fill: #72c0f9;
      }
    </style>
  </defs>
  <g id="Layer_11" data-name="Layer_1">
    <g>
      <path class="st4" d="M20.6,12.4c-4.6,0-8.3,11.9-8.3,16.5s12,8.3,16.5,8.3,8.3-11.9,8.3-16.5-11.9-8.3-16.5-8.3ZM30.9,30.9h-12.4v-12.4h12.4v12.4Z"/>
      <polygon class="st0" points="18.6 30.9 30.9 30.9 30.9 30.9 30.9 18.6 18.6 18.6 18.6 30.9"/>
      <path class="st0" d="M22.7,6.2c-9.1,0-16.5,11.5-16.5,20.6s11.5,16.5,20.6,16.5,16.5-11.5,16.5-20.6S31.8,6.2,22.7,6.2ZM28.9,37.1c-4.6,0-16.5-3.7-16.5-8.3s3.7-16.5,8.3-16.5,16.5,3.7,16.5,8.3-3.7,16.5-8.3,16.5Z"/>
      <path class="st3" d="M24.8,0C11.1,0,0,11.1,0,24.8s11.1,24.8,24.8,24.8,24.8-11.1,24.8-24.8S38.5,0,24.8,0ZM26.8,43.3c-9.1,0-20.6-7.4-20.6-16.5S13.6,6.2,22.7,6.2s20.6,7.4,20.6,16.5-7.4,20.6-16.5,20.6Z"/>
    </g>
    <g class="st1">
      <g class="st1">
        <path class="st2" d="M122,32.8l-3,10.5h-1.5l-2.4-8.4-2.5,8.4h-1.5s-2.9-10.5-2.9-10.5h1.5l2.3,8.9,2.5-8.9h1.5l2.4,8.8,2.3-8.8h1.5Z"/>
        <path class="st2" d="M131,39.7h-6.6c0,.8.3,1.4.8,1.9.5.5,1.1.7,1.8.7s1.1-.1,1.5-.4c.4-.3.7-.6.8-1.1h1.5c-.2.8-.7,1.4-1.3,1.9s-1.5.7-2.5.7-1.5-.2-2.1-.5c-.6-.4-1.1-.8-1.4-1.5-.4-.6-.5-1.4-.5-2.2s.2-1.6.5-2.2c.3-.6.8-1.1,1.4-1.5.6-.3,1.3-.5,2.1-.5s1.5.2,2.1.5c.6.3,1.1.8,1.4,1.4.3.6.5,1.3.5,2s0,.5,0,.8ZM129.3,37.2c-.2-.4-.5-.7-.9-.9-.4-.2-.8-.3-1.3-.3-.7,0-1.3.2-1.8.7-.5.4-.8,1-.8,1.8h5.2c0-.5-.1-1-.3-1.3Z"/>
        <path class="st2" d="M143.2,33.5c.8.4,1.5,1,1.9,1.8.4.8.7,1.7.7,2.8s-.2,2-.7,2.8c-.4.8-1.1,1.4-1.9,1.8s-1.8.6-3,.6h-3.3v-10.5h3.3c1.1,0,2.1.2,3,.6ZM143.3,41.1c.7-.7,1.1-1.7,1.1-3s-.4-2.3-1.1-3c-.7-.7-1.7-1.1-3.1-1.1h-1.9v8.2h1.9c1.3,0,2.4-.4,3.1-1.1Z"/>
        <path class="st2" d="M150,35.3c.4-.3,1-.4,1.6-.4v1.4h-.4c-1.5,0-2.3.8-2.3,2.5v4.5h-1.4v-8.2h1.4v1.3c.2-.5.6-.8,1-1.1Z"/>
        <path class="st2" d="M153.3,33.5c-.2-.2-.3-.4-.3-.7s0-.5.3-.7c.2-.2.4-.3.7-.3s.5,0,.6.3c.2.2.3.4.3.7s0,.5-.3.7c-.2.2-.4.3-.6.3s-.5,0-.7-.3ZM154.6,35.1v8.2h-1.4v-8.2h1.4Z"/>
        <path class="st2" d="M160.1,42l2.5-7h1.5l-3.2,8.2h-1.6l-3.2-8.2h1.5l2.6,7Z"/>
        <path class="st2" d="M172.9,39.7h-6.6c0,.8.3,1.4.8,1.9s1.1.7,1.8.7,1.1-.1,1.5-.4c.4-.3.7-.6.8-1.1h1.5c-.2.8-.7,1.4-1.3,1.9s-1.5.7-2.5.7-1.5-.2-2.1-.5c-.6-.4-1.1-.8-1.4-1.5-.4-.6-.5-1.4-.5-2.2s.2-1.6.5-2.2c.3-.6.8-1.1,1.4-1.5.6-.3,1.3-.5,2.1-.5s1.5.2,2.1.5c.6.3,1.1.8,1.4,1.4s.5,1.3.5,2,0,.5,0,.8ZM171.2,37.2c-.2-.4-.5-.7-.9-.9-.4-.2-.8-.3-1.3-.3-.7,0-1.3.2-1.8.7-.5.4-.8,1-.8,1.8h5.2c0-.5-.1-1-.3-1.3Z"/>
        <path class="st2" d="M186.2,32.8l-3.4,6.5v3.9h-1.4v-3.9l-3.4-6.5h1.5l2.6,5.3,2.6-5.3h1.5Z"/>
        <path class="st2" d="M189.2,42.9c-.6-.4-1.1-.8-1.5-1.5-.4-.6-.5-1.4-.5-2.2s.2-1.6.5-2.2c.4-.6.9-1.1,1.5-1.5.6-.3,1.3-.5,2.1-.5s1.5.2,2.1.5c.6.3,1.1.8,1.5,1.5.4.6.5,1.4.5,2.2s-.2,1.6-.6,2.2c-.4.6-.9,1.1-1.5,1.5-.6.3-1.4.5-2.1.5s-1.5-.2-2.1-.5ZM192.6,41.9c.4-.2.8-.6,1-1s.4-1,.4-1.7-.1-1.2-.4-1.7c-.3-.5-.6-.8-1-1-.4-.2-.9-.3-1.4-.3s-1,.1-1.4.3c-.4.2-.7.6-1,1s-.4,1-.4,1.7.1,1.2.4,1.7.6.8,1,1c.4.2.9.3,1.4.3s.9-.1,1.4-.3Z"/>
        <path class="st2" d="M204.6,35.1v8.2h-1.4v-1.2c-.3.4-.6.7-1.1,1-.5.2-1,.4-1.5.4s-1.2-.1-1.7-.4-.9-.7-1.2-1.2-.4-1.2-.4-1.9v-4.8h1.4v4.6c0,.8.2,1.4.6,1.9.4.4,1,.7,1.7.7s1.3-.2,1.7-.7.6-1.1.6-2v-4.5h1.4Z"/>
        <path class="st2" d="M209.4,35.3c.4-.3,1-.4,1.6-.4v1.4h-.4c-1.5,0-2.3.8-2.3,2.5v4.5h-1.4v-8.2h1.4v1.3c.2-.5.6-.8,1-1.1Z"/>
        <path class="st2" d="M224.6,35.9c-.3-.6-.7-1.1-1.3-1.4s-1.2-.5-1.9-.5-1.4.2-2,.5-1,.8-1.4,1.4-.5,1.3-.5,2.2.2,1.5.5,2.2.8,1.1,1.4,1.4,1.2.5,2,.5,1.9-.3,2.5-.9c.7-.6,1-1.4,1.2-2.5h-4.2v-1.1h5.6v1c0,.9-.3,1.6-.8,2.4s-1.1,1.3-1.8,1.7-1.6.6-2.5.6-1.9-.2-2.7-.7c-.8-.5-1.4-1.1-1.9-1.9-.5-.8-.7-1.7-.7-2.7s.2-1.9.7-2.8c.5-.8,1.1-1.5,1.9-1.9.8-.5,1.7-.7,2.7-.7s2.1.3,2.9.8c.9.5,1.5,1.3,1.9,2.3h-1.6Z"/>
        <path class="st2" d="M230.8,35.3c.4-.3,1-.4,1.6-.4v1.4h-.4c-1.5,0-2.3.8-2.3,2.5v4.5h-1.4v-8.2h1.4v1.3c.2-.5.6-.8,1-1.1Z"/>
        <path class="st2" d="M235.5,42.9c-.6-.4-1.1-.8-1.5-1.5-.4-.6-.5-1.4-.5-2.2s.2-1.6.5-2.2c.4-.6.9-1.1,1.5-1.5.6-.3,1.3-.5,2.1-.5s1.5.2,2.1.5c.6.3,1.1.8,1.5,1.5.4.6.5,1.4.5,2.2s-.2,1.6-.6,2.2c-.4.6-.9,1.1-1.5,1.5-.6.3-1.3.5-2.1.5s-1.5-.2-2.1-.5ZM239,41.9c.4-.2.8-.6,1-1,.3-.5.4-1,.4-1.7s-.1-1.2-.4-1.7-.6-.8-1-1c-.4-.2-.9-.3-1.4-.3s-1,.1-1.4.3c-.4.2-.7.6-1,1s-.4,1-.4,1.7.1,1.2.4,1.7c.2.5.6.8,1,1,.4.2.9.3,1.3.3s1-.1,1.4-.3Z"/>
        <path class="st2" d="M254.6,35.1l-2.6,8.2h-1.4l-2-6.5-2,6.5h-1.4l-2.6-8.2h1.4l1.9,6.9,2-6.9h1.4l2,6.9,1.9-6.9h1.3Z"/>
        <path class="st2" d="M257.7,36.2v4.8c0,.4,0,.7.3.8.2.2.5.2.9.2h1v1.2h-1.2c-.8,0-1.3-.2-1.7-.5-.4-.3-.6-.9-.6-1.7v-4.8h-1.1v-1.1h1.1v-2.1h1.4v2.1h2.1v1.1h-2.1Z"/>
        <path class="st2" d="M267.3,35.3c.5.3.9.7,1.2,1.2.3.5.4,1.2.4,1.9v4.8h-1.3v-4.7c0-.8-.2-1.4-.6-1.9-.4-.4-1-.7-1.7-.7s-1.3.2-1.7.7-.6,1.1-.6,2v4.5h-1.4v-11.1h1.4v4c.3-.4.6-.7,1.1-1,.5-.2,1-.3,1.6-.3s1.2.1,1.7.4Z"/>
      </g>
      <g class="st1">
        <path class="st3" d="M59.8,25.1c-1-.4-1.8-1.1-2.3-1.9s-.9-1.7-.9-2.7h2.1c0,1,.5,1.8,1.3,2.5.7.7,1.8,1.1,3.3,1.1s2.4-.3,3.2-1c.8-.7,1.2-1.5,1.2-2.6s-.2-1.5-.6-2c-.4-.5-1-.9-1.6-1.1-.6-.3-1.5-.5-2.6-.8-1.3-.4-2.3-.7-3.1-1-.8-.3-1.4-.9-2-1.6s-.8-1.7-.8-2.9.3-1.9.8-2.7c.5-.8,1.3-1.4,2.2-1.9s2-.7,3.3-.7c1.8,0,3.3.4,4.4,1.3,1.1.9,1.8,2,1.9,3.4h-2.1c-.1-.8-.6-1.5-1.3-2.1s-1.8-.9-3-.9-2.2.3-2.9.9c-.8.6-1.2,1.5-1.2,2.6s.2,1.5.6,2c.4.5,1,.9,1.6,1.1.6.3,1.5.5,2.6.8,1.3.4,2.3.7,3.1,1,.8.3,1.4.9,2,1.6.5.7.8,1.7.8,2.9s-.2,1.8-.7,2.6c-.5.8-1.2,1.5-2.2,2-1,.5-2.1.8-3.4.8s-2.4-.2-3.4-.7Z"/>
        <path class="st3" d="M92.5,6.3v19.3h-2v-15.4l-6.9,15.4h-1.4l-6.9-15.4v15.4h-2V6.3h2.1l7.5,16.7,7.5-16.7h2.1Z"/>
        <path class="st3" d="M108.3,21h-8.9l-1.7,4.6h-2.1l7.1-19.3h2.2l7.1,19.3h-2.1l-1.7-4.6ZM107.8,19.3l-3.9-10.6-3.9,10.6h7.7Z"/>
        <path class="st3" d="M125.8,25.6l-4.8-8.2h-3.6v8.2h-2V6h5.9c2.2,0,3.8.5,5,1.6,1.1,1,1.7,2.4,1.7,4.1s-.4,2.6-1.2,3.6c-.8,1-2,1.6-3.6,1.9l5,8.3h-2.4ZM117.3,15.8h3.9c1.5,0,2.7-.4,3.5-1.1.8-.7,1.2-1.7,1.2-3s-.4-2.3-1.1-3-1.9-1-3.5-1h-3.9v8.1Z"/>
        <path class="st3" d="M143.3,6v1.6h-5.4v17.9h-2V7.7h-5.5v-1.6h12.9Z"/>
        <path class="st3" d="M158,6v1.6h-5.4v17.9h-2V7.7h-5.5v-1.6h12.9Z"/>
        <path class="st3" d="M163.1,7.6v7.3h7.4v1.6h-7.4v7.4h8.3v1.6h-10.2V6h10.2v1.6h-8.3Z"/>
        <path class="st3" d="M175.7,10.6c.8-1.5,2-2.7,3.4-3.6,1.5-.8,3.1-1.3,4.9-1.3s4.1.5,5.6,1.6c1.6,1,2.7,2.5,3.4,4.4h-2.3c-.6-1.3-1.4-2.4-2.6-3.1s-2.5-1.1-4.2-1.1-2.7.3-3.9,1-2,1.6-2.7,2.9c-.7,1.3-1,2.7-1,4.4s.3,3.1,1,4.4c.7,1.2,1.6,2.2,2.7,2.9s2.4,1,3.9,1,3-.4,4.2-1.1c1.1-.7,2-1.8,2.6-3.1h2.3c-.7,1.9-1.8,3.3-3.4,4.3-1.6,1-3.4,1.5-5.6,1.5s-3.4-.4-4.9-1.3c-1.5-.8-2.6-2-3.4-3.5-.8-1.5-1.3-3.2-1.3-5.2s.4-3.6,1.3-5.2Z"/>
        <path class="st3" d="M211.5,6v19.6h-2v-9.2h-10.6v9.2h-2V6h2v8.8h10.6V6h2Z"/>
      </g>
      <g class="st1">
        <path class="st4" d="M228.5,15c-.5.9-1.3,1.7-2.3,2.2-1.1.6-2.4.8-4,.8h-3.3v7.5h-3.9V6.1h7.2c1.5,0,2.8.3,3.9.8,1.1.5,1.9,1.2,2.4,2.2.5.9.8,2,.8,3.1s-.2,2-.7,2.9ZM224.5,14.2c.5-.5.8-1.2.8-2.1,0-1.9-1.1-2.9-3.2-2.9h-3.1v5.7h3.1c1.1,0,1.9-.2,2.4-.7Z"/>
        <path class="st4" d="M242.2,25.6l-4.3-7.6h-1.8v7.6h-3.9V6.1h7.3c1.5,0,2.8.3,3.9.8,1.1.5,1.9,1.3,2.4,2.2s.8,1.9.8,3-.4,2.5-1.1,3.5c-.7,1-1.9,1.8-3.3,2.1l4.7,7.9h-4.5ZM236.1,15h3.3c1.1,0,1.9-.3,2.4-.8.5-.5.8-1.2.8-2.1s-.3-1.6-.8-2.1c-.5-.5-1.3-.7-2.4-.7h-3.3v5.7Z"/>
        <path class="st4" d="M254.2,24.5c-1.5-.9-2.7-2-3.6-3.6-.9-1.5-1.3-3.2-1.3-5.2s.4-3.6,1.3-5.1c.9-1.5,2.1-2.7,3.6-3.6,1.5-.9,3.2-1.3,5-1.3s3.5.4,5.1,1.3c1.5.9,2.7,2,3.6,3.6.9,1.5,1.3,3.2,1.3,5.1s-.4,3.6-1.3,5.2c-.9,1.5-2.1,2.7-3.6,3.6-1.5.9-3.2,1.3-5,1.3s-3.5-.4-5-1.3ZM262.4,21.5c.9-.5,1.6-1.3,2.1-2.3s.8-2.1.8-3.4-.3-2.5-.8-3.4c-.5-1-1.2-1.7-2.1-2.3-.9-.5-1.9-.8-3.1-.8s-2.2.3-3.1.8-1.6,1.3-2.1,2.3c-.5,1-.8,2.1-.8,3.4s.3,2.5.8,3.4,1.2,1.8,2.1,2.3c.9.5,1.9.8,3.1.8s2.2-.3,3.1-.8Z"/>
      </g>
    </g>
  </g>
</svg>